<svg xmlns="http://www.w3.org/2000/svg" viewBox="0 0 500.63 497.06"><defs><style>.cls-1,.cls-2{fill:none;stroke:#009fff;stroke-miterlimit:10;stroke-width:17px;}.cls-2{stroke-linecap:round;}</style></defs><g id="Layer_2" data-name="Layer 2"><g id="powered_by" data-name="powered by"><g id="v1"><path class="cls-1" d="M125.73,214.85H374.9v32.54c0,81-56.06,147.24-124.58,147.24S125.73,328.37,125.73,247.39Z"/><path class="cls-1" d="M209.15,214.85V143.38a21.18,21.18,0,1,0-42.35,0v71.47"/><path class="cls-1" d="M330.62,214.85V143.38a21.18,21.18,0,1,0-42.36,0v71.47"/><path class="cls-2" d="M166.79,477.32C74.4,443.31,8.5,354.51,8.5,250.32,8.5,116.76,116.76,8.5,250.32,8.5S492.13,116.76,492.13,250.32c0,146.08-147.88,225.35-182.69,234.53-9.82,2.59-31.61,8.35-46-3.43-8.89-7.26-11.48-18.35-12.39-24.77q-.54-27.21-1.07-54.4"/></g></g></g></svg>