<svg xmlns="http://www.w3.org/2000/svg" viewBox="0 0 495.08 457.78"><defs><style>.cls-1,.cls-2{fill:none;stroke:#009fff;stroke-miterlimit:10;}.cls-1{stroke-width:17px;}.cls-2{stroke-width:13px;}</style></defs><g id="Layer_2" data-name="Layer 2"><g id="application"><g id="v1"><path class="cls-1" d="M377.47,376.24h89.36a19.75,19.75,0,0,0,19.75-19.75V28.25A19.75,19.75,0,0,0,466.83,8.5H28.25A19.75,19.75,0,0,0,8.5,28.25V356.49a19.75,19.75,0,0,0,19.75,19.75h89.36"/><circle class="cls-1" cx="247.54" cy="297.24" r="152.04"/><circle class="cls-1" cx="247.54" cy="297.24" r="41.2"/><path class="cls-1" d="M320.39,319.38l-4.93,12.23-.2.48,11.84,22.06a4.82,4.82,0,0,1-.84,5.67L311,375.09a4.78,4.78,0,0,1-5.61.84l-22-11.51-.4.17-12.18,5.14-.05,0-7.21,24a4.81,4.81,0,0,1-4.61,3.42H237.35a4.73,4.73,0,0,1-4.54-3.36l-7.41-23.69-12.24-4.94-.47-.2-22,11.85A4.82,4.82,0,0,1,185,376l-15.27-15.27a4.71,4.71,0,0,1-.81-5.61l11.48-22-.17-.39-5.14-12.18,0-.06-24-7.21a4.79,4.79,0,0,1-3.43-4.6V287.05a4.73,4.73,0,0,1,3.4-4.55l23.66-7.41,4.94-12.23.19-.48-11.84-22a4.85,4.85,0,0,1,.84-5.7l15.27-15.26a4.72,4.72,0,0,1,5.61-.82l22,11.48.4-.17,12.18-5.13.05,0,7.22-24a4.82,4.82,0,0,1,4.6-3.42h21.61a4.72,4.72,0,0,1,4.54,3.39l7.41,23.66a71.68,71.68,0,0,1,12.72,5.17l22-11.87a4.87,4.87,0,0,1,5.69.84l15.27,15.26a4.76,4.76,0,0,1,.81,5.64l-11.47,22,.16.39L320.06,274l24,7.18a4.82,4.82,0,0,1,3.43,4.6v21.61a4.79,4.79,0,0,1-3.4,4.58Z"/><circle class="cls-2" cx="68.71" cy="68.53" r="15.12"/><circle class="cls-2" cx="130.95" cy="68.53" r="15.12"/><circle class="cls-2" cx="193.19" cy="68.53" r="15.12"/></g></g></g></svg>