<svg xmlns="http://www.w3.org/2000/svg" viewBox="0 0 498.34 505"><defs><style>.cls-1,.cls-2{fill:none;stroke:#009fff;stroke-miterlimit:10;stroke-width:17px;}.cls-2{stroke-linecap:round;}</style></defs><g id="Layer_2" data-name="Layer 2"><g id="team"><g id="v2"><path class="cls-1" d="M318.28,168.5A171.39,171.39,0,0,1,418.67,299.73"/><path class="cls-1" d="M147.75,463.1a171.24,171.24,0,0,0,202.84.27"/><path class="cls-1" d="M413.1,375.44c-.11.34-.21.7-.32,1"/><path class="cls-1" d="M80,299.75a171.34,171.34,0,0,1,99-130.64"/><path class="cls-1" d="M85.93,376.53c-.13-.38-.24-.77-.36-1.15"/><circle class="cls-1" cx="249.35" cy="333.92" r="86.38"/><polyline class="cls-2" points="214.37 336.04 239.56 363.16 293.05 308.17"/><path class="cls-1" d="M78.13,376c-19,0-36.8,9.24-50,26C15.47,418.14,8.5,439.42,8.5,462v4.92l4,2.87c1.2.87,29.79,21.12,65.63,21.12s64.42-20.25,65.62-21.12l4-2.87V462c0-22.53-7-43.81-19.63-59.92-13.2-16.78-30.95-26-50-26Z"/><rect class="cls-1" x="39.93" y="299.71" width="76.4" height="76.4" rx="38.2"/><path class="cls-1" d="M420.21,376c-19,0-36.79,9.24-50,26-12.66,16.11-19.63,37.39-19.63,59.92v4.92l4,2.87c1.2.87,29.8,21.12,65.63,21.12s64.43-20.25,65.63-21.12l4-2.87V462c0-22.53-7-43.81-19.64-59.92-13.19-16.78-30.95-26-50-26Z"/><rect class="cls-1" x="382.01" y="299.71" width="76.4" height="76.4" rx="38.2"/><path class="cls-1" d="M248.67,84.8c-19,0-36.79,9.24-50,26-12.66,16.11-19.63,37.39-19.63,59.92v4.92l4,2.87c1.19.87,29.79,21.12,65.62,21.12s64.43-20.25,65.63-21.12l4-2.87v-4.92c0-22.53-7-43.81-19.64-59.92-13.19-16.78-31-26-50-26Z"/><rect class="cls-1" x="210.47" y="8.5" width="76.4" height="76.4" rx="38.2"/></g></g></g></svg>