<svg xmlns="http://www.w3.org/2000/svg" viewBox="0 0 499.05 499.05"><defs><style>.cls-1,.cls-2{fill:none;stroke:#009fff;stroke-miterlimit:10;stroke-width:17px;}.cls-2{stroke-linecap:round;}</style></defs><g id="Layer_2" data-name="Layer 2"><g id="resiliency"><g id="v1"><circle class="cls-1" cx="249.53" cy="249.53" r="241.03"/><path class="cls-1" d="M349.53,93.21l-22.78,59.33a270.7,270.7,0,0,0,0,194l22.78,59.33"/><path class="cls-1" d="M149.53,93.21l24.06,65.26a270.14,270.14,0,0,1-2.65,193.85l-21.41,53.52"/><line class="cls-2" x1="83" y1="249.91" x2="137.8" y2="249.91"/><polyline class="cls-2" points="114.9 227.01 137.8 249.91 114.9 272.8"/></g><line class="cls-2" x1="359.55" y1="249.91" x2="414.35" y2="249.91"/><polyline class="cls-2" points="382.45 272.8 359.55 249.91 382.45 227.01"/><line class="cls-2" x1="249.53" y1="87.25" x2="249.53" y2="61.95"/><line class="cls-2" x1="249.53" y1="161.06" x2="249.53" y2="135.76"/><line class="cls-2" x1="249.53" y1="230.83" x2="249.53" y2="205.53"/><line class="cls-2" x1="249.53" y1="300.6" x2="249.53" y2="275.3"/><line class="cls-2" x1="249.53" y1="370.37" x2="249.53" y2="345.06"/><line class="cls-2" x1="249.53" y1="440.13" x2="249.53" y2="414.83"/></g></g></svg>