<?xml version="1.0" encoding="UTF-8"?><svg id="Layer_2" xmlns="http://www.w3.org/2000/svg" viewBox="0 0 500.95 432.04"><g id="cost_saving"><g id="v2"><line x1="80.4" y1="190.76" x2="80.4" y2="38.23" style="fill:none; stroke:#009eff; stroke-miterlimit:10; stroke-width:17px;"/><path d="m113.26,67.97h346.33c18.07,0,32.86,14.78,32.86,32.87v215.31c0,18.07-14.78,32.86-32.86,32.86h-217.15" style="fill:none; stroke:#009eff; stroke-miterlimit:10; stroke-width:17px;"/><path d="m492.46,257.91h-111.69c-26.15,0-47.54-21.4-47.54-47.54,0-13.07,5.35-24.96,13.96-33.57,8.62-8.63,20.5-13.97,33.57-13.97h111.69" style="fill:none; stroke:#009eff; stroke-miterlimit:10; stroke-width:17px;"/><circle cx="389.09" cy="210.42" r="16.66" style="fill:none; stroke:#009eff; stroke-miterlimit:10; stroke-width:17px;"/><path d="m110.13,8.5h315.61v59.47H110.13c-16.41,0-29.73-13.32-29.73-29.73h0c0-16.41,13.32-29.73,29.73-29.73Z" style="fill:none; stroke:#009eff; stroke-miterlimit:10; stroke-width:17px;"/><circle cx="130.21" cy="301.83" r="121.71" style="fill:none; stroke:#009eff; stroke-miterlimit:10; stroke-width:17px;"/><path d="m160.7,301.6c4.02,5.55,6.03,12.41,6.03,20.56,0,10.28-3.31,18.73-9.92,25.34-4.37,4.14-9.81,7.03-16.3,8.68v8.33c0,2.84-1.01,5.23-3.01,7.18-2.01,1.95-4.43,2.92-7.27,2.92h-1.6c-2.84,0-5.26-.97-7.27-2.92-2.01-1.95-3.01-4.34-3.01-7.18v-8.33c-1.06-.24-2.1-.5-3.1-.8-1.01-.29-2.04-.62-3.1-.97-4.96-1.77-9.33-4.08-13.11-6.91-2.25-1.65-3.6-3.78-4.08-6.38-.47-2.6,0-5.08,1.42-7.44l1.06-1.6c1.42-2.24,3.6-3.78,6.56-4.61,2.84-.59,5.43-.06,7.8,1.59,1.18.71,2.48,1.45,3.9,2.22,1.42.77,2.95,1.51,4.61,2.22,2.48,1.06,5.73,1.6,9.75,1.6,2.13,0,4.25-.29,6.38-.89,1.89-.71,3.37-1.53,4.43-2.48,1.18-1.18,2.07-2.36,2.66-3.54.59-1.77.89-3.72.89-5.85,0-1.3-.09-2.63-.27-3.99-.18-1.36-.68-2.51-1.51-3.46-.59-.71-1.63-1.56-3.1-2.57-1.48-1-3.63-2.04-6.47-3.1h-.18l-7.09-2.66c-4.14-1.65-7.83-3.43-11.08-5.32-3.25-1.89-6.06-4.08-8.42-6.56-5.44-5.55-8.15-13.35-8.15-23.39,0-5.08.77-9.51,2.3-13.29,1.53-4.02,3.9-7.5,7.09-10.46,2.84-2.84,6.14-4.96,9.92-6.38.24-.24.53-.38.89-.44.35-.06.65-.15.89-.27v-6.73c0-2.84,1-5.26,3.01-7.27,2.01-2.01,4.43-3.01,7.27-3.01h1.6c2.84,0,5.26,1.01,7.27,3.01,2.01,2.01,3.01,4.43,3.01,7.27v5.32c1.18.24,2.33.5,3.46.8,1.12.3,2.22.62,3.28.97,4.61,1.66,8.33,3.49,11.17,5.49,2.36,1.42,3.87,3.43,4.52,6.03.65,2.6.32,5.08-.97,7.44l-.89,1.6c-1.42,2.48-3.54,4.2-6.38,5.14-2.6.71-5.26.3-7.98-1.24-1.18-.71-2.39-1.33-3.63-1.86-1.24-.53-2.51-1.09-3.81-1.68-2.01-.83-4.67-1.24-7.98-1.24-4.14,0-7.21.95-9.22,2.84-.24.24-.71.89-1.42,1.95-.71,1.06-1.06,3.07-1.06,6.03,0,1.42.06,2.57.18,3.46.12.89.29,1.57.53,2.04.35,1.3.89,2.25,1.6,2.84.94.95,2.07,1.83,3.37,2.66.94.47,1.95.95,3.01,1.42,1.06.47,2.24.95,3.55,1.42h.18l8.68,3.37c8.98,3.43,15.36,7.8,19.14,13.11Z" style="fill:#009eff;"/></g></g></svg>