<svg xmlns="http://www.w3.org/2000/svg" viewBox="0 0 498.75 478.6"><defs><style>.cls-1{fill:none;stroke:#009fff;stroke-miterlimit:10;stroke-width:17px;}</style></defs><g id="Layer_2" data-name="Layer 2"><g id="chat"><rect class="cls-1" x="8.5" y="8.5" width="481.75" height="461.6" rx="59.09"/><path class="cls-1" d="M282.41,325.75a128.48,128.48,0,0,0,50.07,1.72A124.05,124.05,0,0,0,352,322.66l58.11,15.4L393,298.8c20-18.16,32.35-43,32.35-70.38,0-55.64-50.86-100.73-113.62-100.73a123.1,123.1,0,0,0-65.61,18.49"/><path class="cls-1" d="M196.13,136.86c-68.48,0-124,49.22-124,109.93,0,29.89,13.46,57,35.3,76.81l-18.6,42.84,63.42-16.8h0a138,138,0,0,0,43.87,7.09c68.48,0,124-49.22,124-109.94S264.61,136.86,196.13,136.86Z"/><circle class="cls-1" cx="135.28" cy="249.21" r="15.36"/><circle class="cls-1" cx="197.21" cy="249.21" r="15.36"/><circle class="cls-1" cx="259.14" cy="249.21" r="15.36"/></g></g></svg>