<svg xmlns="http://www.w3.org/2000/svg" viewBox="0 0 499.1 498.19"><defs><style>.cls-1{fill:none;stroke:#009fff;stroke-miterlimit:10;stroke-width:17px;}</style></defs><g id="Layer_2" data-name="Layer 2"><g id="app_platform" data-name="app platform"><polyline class="cls-1" points="349.22 275.01 388.48 301.01 247.74 395.5 106.03 301.64 145.55 275.46"/><polyline class="cls-1" points="145.55 223.11 106.03 249.28 145.55 275.46 247.74 343.14 349.22 275.01 388.48 248.65 349.22 222.65"/><polygon class="cls-1" points="106.03 196.93 247.74 103.08 388.48 196.29 247.74 290.78 106.03 196.93"/><line class="cls-1" x1="398.8" y1="54.4" x2="100.29" y2="54.4"/><line class="cls-1" x1="398.82" y1="444.7" x2="100.27" y2="444.7"/><line class="cls-1" x1="54.4" y1="397.89" x2="54.4" y2="100.3"/><line class="cls-1" x1="444.7" y1="397.89" x2="444.7" y2="100.3"/><circle class="cls-1" cx="54.4" cy="54.4" r="45.9"/><circle class="cls-1" cx="444.7" cy="54.4" r="45.9"/><circle class="cls-1" cx="54.4" cy="443.79" r="45.9"/><circle class="cls-1" cx="444.7" cy="443.79" r="45.9"/></g></g></svg>