<?xml version="1.0" encoding="UTF-8"?><svg id="Layer_2" xmlns="http://www.w3.org/2000/svg" viewBox="0 0 567.3 455.69"><g id="swag"><path d="m32.68,192.08L9.79,84.15,192.94,8.92h0c59.6,14.95,121.95,15.08,181.61.38l1.54-.38,181.52,75.22-21.26,107.93-91.58-16.35v271.46H124.26V174.09l-91.58,17.99Z" style="fill:none; stroke:#009eff; stroke-miterlimit:10; stroke-width:17px;"/><path d="m192.94,8.92l32.46,50.89c27.65,43.36,90.58,44.44,119.72,2.07l35.21-51.21" style="fill:none; stroke:#009eff; stroke-miterlimit:10; stroke-width:17px;"/><circle cx="283.65" cy="248.29" r="20.27" style="fill:none; stroke:#009eff; stroke-miterlimit:10; stroke-width:17px;"/><circle cx="283.68" cy="248.1" r="68.48" style="fill:none; stroke:#009eff; stroke-miterlimit:10; stroke-width:17px;"/><line x1="283.65" y1="228.02" x2="283.65" y2="149.4" style="fill:none; stroke:#009eff; stroke-miterlimit:10; stroke-width:17px;"/><line x1="267.77" y1="235.57" x2="206.38" y2="186.57" style="fill:none; stroke:#009eff; stroke-miterlimit:10; stroke-width:17px;"/><line x1="361.05" y1="186.74" x2="299.87" y2="235.57" style="fill:none; stroke:#009eff; stroke-miterlimit:10; stroke-width:17px;"/><line x1="262.93" y1="252.16" x2="187.21" y2="270.25" style="fill:none; stroke:#009eff; stroke-miterlimit:10; stroke-width:17px;"/><line x1="380.06" y1="270.35" x2="303.91" y2="252.16" style="fill:none; stroke:#009eff; stroke-miterlimit:10; stroke-width:17px;"/><line x1="275.35" y1="267.51" x2="240.88" y2="337.47" style="fill:none; stroke:#009eff; stroke-miterlimit:10; stroke-width:17px;"/><line x1="327.25" y1="337.07" x2="292.98" y2="267.51" style="fill:none; stroke:#009eff; stroke-miterlimit:10; stroke-width:17px;"/></g></svg>