<svg xmlns="http://www.w3.org/2000/svg" viewBox="0 0 498.34 446.96"><defs><style>.cls-1,.cls-2,.cls-3{fill:none;stroke:#009fff;stroke-miterlimit:10;}.cls-1{stroke-width:16.09px;}.cls-2{stroke-width:16.36px;}.cls-3{stroke-linecap:round;stroke-width:17px;}</style></defs><g id="Layer_2" data-name="Layer 2"><g id="agility"><line class="cls-1" x1="335" y1="375.79" x2="275.23" y2="375.79"/><path class="cls-1" d="M85.06,375.79H29.71A21.66,21.66,0,0,1,8.05,354.13V29.71A21.66,21.66,0,0,1,29.71,8.05H468.65A21.65,21.65,0,0,1,490.3,29.71V354.13a21.65,21.65,0,0,1-21.65,21.66H404.41"/><line class="cls-1" x1="205.82" y1="375.79" x2="154.47" y2="375.79"/><rect class="cls-2" x="205.82" y="226.55" width="69.41" height="212.24" rx="34.7"/><rect class="cls-2" x="85.06" y="305.37" width="69.41" height="133.41" rx="34.7"/><rect class="cls-2" x="335" y="150.19" width="69.41" height="288.6" rx="34.7"/><line class="cls-3" x1="119.77" y1="112.87" x2="119.77" y2="58.07"/><line class="cls-3" x1="119.77" y1="181.49" x2="119.77" y2="156.19"/><polyline class="cls-3" points="96.87 80.97 119.77 58.07 142.66 80.97"/><line class="cls-3" x1="119.77" y1="255.3" x2="119.77" y2="230"/><line class="cls-3" x1="237.77" y1="112.87" x2="237.77" y2="58.07"/><polyline class="cls-3" points="214.87 80.97 237.77 58.07 260.66 80.97"/><line class="cls-3" x1="237.77" y1="181.84" x2="237.77" y2="156.54"/><line class="cls-3" x1="369.71" y1="112.87" x2="369.71" y2="58.07"/><polyline class="cls-3" points="346.81 80.97 369.71 58.07 392.6 80.97"/></g></g></svg>