<svg xmlns="http://www.w3.org/2000/svg" viewBox="0 0 500.9 474.68"><defs><style>.cls-1,.cls-2,.cls-3,.cls-4{fill:none;stroke:#009fff;stroke-miterlimit:10;stroke-width:17px;}.cls-2{stroke-linecap:round;}.cls-3{stroke-dasharray:17.29 17.29;}.cls-4{stroke-dasharray:17.63 17.63;}</style></defs><g id="Layer_2" data-name="Layer 2"><g id="apps"><g id="v2"><rect class="cls-1" x="92.06" y="75.66" width="140.61" height="140.61" rx="18.97"/><rect class="cls-1" x="271.74" y="75.66" width="140.61" height="140.61" rx="18.97"/><rect class="cls-1" x="271.74" y="258.42" width="140.61" height="140.61" rx="18.97"/><rect class="cls-1" x="92.06" y="258.42" width="140.61" height="140.61" rx="18.97"/><line class="cls-2" x1="344.92" y1="292.88" x2="344.92" y2="365.76"/><line class="cls-2" x1="310.32" y1="329.32" x2="379.51" y2="329.32"/><line class="cls-1" x1="271.74" y1="131.21" x2="232.67" y2="131.21"/><line class="cls-1" x1="271.74" y1="333.14" x2="232.67" y2="333.14"/><line class="cls-1" x1="151.32" y1="258.43" x2="151.32" y2="216.27"/><line class="cls-1" x1="353.26" y1="258.43" x2="353.26" y2="216.27"/><polyline class="cls-1" points="492.4 457.68 492.4 466.18 483.9 466.18"/><line class="cls-3" x1="466.6" y1="466.18" x2="25.65" y2="466.18"/><polyline class="cls-1" points="17 466.18 8.5 466.18 8.5 457.68"/><line class="cls-4" x1="8.5" y1="440.05" x2="8.5" y2="25.81"/><polyline class="cls-1" points="8.5 17 8.5 8.5 17 8.5"/><line class="cls-3" x1="34.29" y1="8.5" x2="475.25" y2="8.5"/><polyline class="cls-1" points="483.9 8.5 492.4 8.5 492.4 17"/><line class="cls-4" x1="492.4" y1="34.63" x2="492.4" y2="448.87"/></g></g></g></svg>