<svg xmlns="http://www.w3.org/2000/svg" viewBox="0 0 498.61 483.46"><defs><style>.cls-1{fill:none;stroke:#009fff;stroke-miterlimit:10;stroke-width:17px;}</style></defs><g id="Layer_2" data-name="Layer 2"><g id="workload_cluster" data-name="workload cluster"><g id="layer1"><g id="g3052"><line class="cls-1" x1="389.28" y1="104.28" x2="278.02" y2="51.16"/><line class="cls-1" x1="442.53" y1="322.2" x2="365.01" y2="418.62"/><line class="cls-1" x1="135.73" y1="421.27" x2="61.61" y2="329.11"/><line class="cls-1" x1="72.79" y1="149.59" x2="44.35" y2="273.32"/><polyline class="cls-1" points="191.11 445.67 191.12 445.67 312.38 445.65"/><line class="cls-1" x1="451.86" y1="262.9" x2="425.97" y2="150.4"/><line class="cls-1" x1="218.12" y1="52.31" x2="111.42" y2="103.29"/><circle class="cls-1" cx="247.8" cy="252.26" r="29.87"/><circle class="cls-1" cx="247.85" cy="251.98" r="100.9"/><line class="cls-1" x1="247.8" y1="222.39" x2="247.8" y2="106.55"/><line class="cls-1" x1="224.41" y1="233.53" x2="133.95" y2="161.33"/><line class="cls-1" x1="361.85" y1="161.58" x2="271.7" y2="233.53"/><line class="cls-1" x1="217.28" y1="257.96" x2="105.71" y2="284.62"/><line class="cls-1" x1="389.86" y1="284.77" x2="277.66" y2="257.96"/><line class="cls-1" x1="235.58" y1="280.59" x2="184.79" y2="383.67"/><line class="cls-1" x1="312.04" y1="383.07" x2="261.56" y2="280.59"/></g></g><circle class="cls-1" cx="247.86" cy="40.49" r="31.99" transform="translate(3.37 97.93) rotate(-22.5)"/><circle class="cls-1" cx="417.39" cy="119.56" r="31.99"/><circle class="cls-1" cx="458.12" cy="294.27" r="31.99"/><circle class="cls-1" cx="344.26" cy="442.96" r="31.99"/><circle class="cls-1" cx="159.24" cy="442.96" r="31.99"/><circle class="cls-1" cx="40.49" cy="305.08" r="31.99"/><circle class="cls-1" cx="83.87" cy="119.56" r="31.99"/></g></g></svg>