<svg xmlns="http://www.w3.org/2000/svg" viewBox="0 0 505.66 524.8"><defs><style>.cls-1{fill:none;stroke:#009fff;stroke-miterlimit:10;stroke-width:17px;}.cls-2{fill:#009fff;}</style></defs><g id="Layer_2" data-name="Layer 2"><g id="books"><polyline class="cls-1" points="68.9 242.03 8.5 276.9 8.5 353.55 288.11 514.99 497.16 394.29 497.16 357.62 497.16 317.63 436.76 282.77"/><polyline class="cls-1" points="8.5 276.9 288.11 438.33 497.16 317.63"/><line class="cls-1" x1="288.11" y1="438.33" x2="288.11" y2="514.98"/><line class="cls-1" x1="288.11" y1="476.66" x2="497.16" y2="357.62"/><polygon class="cls-1" points="8.5 207.16 8.5 130.51 217.55 9.81 497.16 171.25 497.16 247.9 288.11 368.59 8.5 207.16"/><polyline class="cls-1" points="8.5 130.51 288.11 291.94 497.16 171.25"/><line class="cls-1" x1="288.11" y1="291.94" x2="288.11" y2="368.59"/><line class="cls-1" x1="288.11" y1="330.27" x2="497.16" y2="211.23"/><ellipse class="cls-1" cx="250.74" cy="145.3" rx="51.12" ry="90.37" transform="translate(76.17 376.61) rotate(-83.05)"/><path class="cls-2" d="M223.4,129.44a11.79,11.79,0,0,1-6,1.43A13.3,13.3,0,0,1,210.7,129c-1.93-1.12-2.93-2.39-3-3.8s.72-2.58,2.31-3.5a11.68,11.68,0,0,1,5.78-1.37,13,13,0,0,1,6.74,1.83q3.15,1.83,3.2,3.85C225.77,127.38,225,128.52,223.4,129.44Z"/><path class="cls-2" d="M248.82,137.35l39.53,22.82c2.73,1.58,4.24,3.1,4.51,4.56s-.45,2.7-2.19,3.7a10.81,10.81,0,0,1-6.38,1.2A18.74,18.74,0,0,1,276.5,167l-39.12-22.59q-4.06-2.34-4.48-4.47c-.29-1.41.44-2.62,2.17-3.62a11.15,11.15,0,0,1,6.35-1.3A16.6,16.6,0,0,1,248.82,137.35Z"/></g></g></svg>