<svg xmlns="http://www.w3.org/2000/svg" viewBox="0 0 498.11 498.11"><defs><style>.cls-1{fill:none;stroke:#009fff;stroke-miterlimit:10;stroke-width:17px;}</style></defs><g id="Layer_2" data-name="Layer 2"><g id="remote"><circle class="cls-1" cx="249.05" cy="249.05" r="240.55"/><path class="cls-1" d="M66.07,92.92c19,6,32.53,20.37,33.3,37.37h2.75a27.66,27.66,0,0,1,0,55.32H17"/><path class="cls-1" d="M435.42,401.18H367.35a28.19,28.19,0,0,1,0-56.38h4.08c1.05-22.82,24.69-41.07,53.73-41.07,22.85,0,42.36,11.3,50.14,27.23"/><path class="cls-1" d="M416,199.76l-.21-.73c-1.87-6.25-13.17-8.94-24.49-10A98.11,98.11,0,0,0,351,193.56l-60.35,19.93L192.21,106.92c-8.42-8.1-22.38,0-19.22,11.27l.08.26L223.3,235.73,141,262.91a4.5,4.5,0,0,0-.63-.89L120,240a4.46,4.46,0,0,0-3.82-1.42c-5.42.66-14.61,5.28-14.61,5.28-2.17,1-4,3.5-3.27,6.07l18.41,39.21h0l6.12,42.89c.77,2.57,3.69,3.61,6.07,3.28,0,0,10.22-1.18,15.11-3.61a4.44,4.44,0,0,0,2.41-3.28l4.9-29.53a4.58,4.58,0,0,0,0-1.69L235.15,275l22.21,125.52c0,.08.05.16.08.25,3.53,11.14,19.66,10.27,22.25-1.12L303.23,257l60.65-16.08A97.94,97.94,0,0,0,404,219.51C411.55,212.78,417.69,205.32,416,199.76Z"/></g></g></svg>