<svg xmlns="http://www.w3.org/2000/svg" viewBox="0 0 498.81 498.81"><defs><style>.cls-1{fill:none;stroke:#009fff;stroke-miterlimit:10;stroke-width:17px;}.cls-2{fill:#009fff;}</style></defs><g id="Layer_2" data-name="Layer 2"><g id="open_source" data-name="open source"><g id="v3"><circle class="cls-1" cx="249.4" cy="249.4" r="240.9"/><path class="cls-2" d="M247.5,113.5C326.1,113.5,390,176.72,390,254.42c0,55.48-33.66,106.22-84.5,128.53L279.64,301a56.65,56.65,0,0,0,24.74-46.59c0-31.15-25.51-56.49-56.88-56.49s-56.88,25.34-56.88,56.49A56.6,56.6,0,0,0,215.43,301l-26,81.9C138.63,360.65,105,309.9,105,254.42c0-77.7,63.94-140.92,142.54-140.92m0-17C159.54,96.5,88,167.35,88,254.42c0,65,41.14,124.12,102.35,147.2a63.28,63.28,0,0,0,10.12,3l35.36-111.58s-3-1.59-7.18-3.85a39.84,39.84,0,1,1,37.8,0c-4.15,2.24-7.11,3.82-7.11,3.82l35.47,112.22s4.63-1.59,9.94-3.62C365.92,378.54,407,319.38,407,254.42,407,167.35,335.47,96.5,247.5,96.5Z"/></g></g></g></svg>