<svg xmlns="http://www.w3.org/2000/svg" viewBox="0 0 500.06 500.06"><defs><style>.cls-1,.cls-2{fill:none;stroke:#009fff;stroke-miterlimit:10;stroke-width:17.38px;}.cls-2{fill-rule:evenodd;}</style></defs><g id="Layer_2" data-name="Layer 2"><g id="Do_it_yourself" data-name="Do it yourself"><circle class="cls-1" cx="250.03" cy="250.03" r="241.34"/><path class="cls-2" d="M197.93,265.68l-24.77-24.74-2,.65c-32,10.35-69.33-9.72-79.87-43C88,188,87.52,167.69,90.54,162.8c.18-.29,8.49,7.55,18.47,17.42s18.58,18,19.12,18c.84,0,34.32-8.77,34.77-9.12.18-.12,3-10.29,6.88-24.93l2.74-10.24-18.38-18.37c-18.11-18.14-18.34-18.4-16.77-19,5.43-2.06,21-2.4,29.2-.63,34.84,7.56,57.72,42.18,50.27,76.1l-1,4.71,45.58,45.4"/><path class="cls-2" d="M276.36,257l16.72,16.66c84.09,83.76,80.29,79.69,82.36,88.46a30.71,30.71,0,0,1-37.24,37.23c-8.77-2.16-4.37,2-85.39-78.94"/><path class="cls-1" d="M400.61,132.83l-15.76-15.75a7.93,7.93,0,0,0-10-1L329,146.24a7.94,7.94,0,0,0-1.25,12.24l8.63,8.64-97.32,97.33-12.87-12.87a7.91,7.91,0,0,0-8.39-1.82,29.79,29.79,0,0,0-10.68,6.75l-80.06,80.07a31.1,31.1,0,0,0-8.91,22.29c0,10.29,4.51,20.68,12.27,28.43l.68.69c7.82,7.84,18.21,12.33,28.49,12.33a31.2,31.2,0,0,0,22.3-8.93l80-80a29.57,29.57,0,0,0,6.78-10.64,7.91,7.91,0,0,0-1.8-8.43L254,279.4l97.32-97.32L359.2,190a7.9,7.9,0,0,0,5.62,2.33,7.31,7.31,0,0,0,.8-.05,7.84,7.84,0,0,0,5.82-3.53l30.18-45.93A7.93,7.93,0,0,0,400.61,132.83Z"/></g></g></svg>