<svg xmlns="http://www.w3.org/2000/svg" viewBox="0 0 498.71 452.25"><defs><style>.cls-1{fill:none;stroke:#009fff;stroke-linecap:round;stroke-miterlimit:10;stroke-width:17px;}.cls-2{fill:#009fff;}</style></defs><g id="Layer_2" data-name="Layer 2"><g id="ci-cd"><g id="Layer_2-2" data-name="Layer 2"><g id="Layer_52" data-name="Layer 52"><g id="v2"><path class="cls-1" d="M302.32,251.63A128.75,128.75,0,1,0,361.42,8.5C283.49,8.5,235,85.81,232.64,137.24c-1,22.56-2.92,42.64,22.62,105C270.86,280.2,267.12,302.59,266,315c-4.54,49.92-49.12,128.65-128.75,128.74C69.91,443.84,8.5,387.6,8.5,315c0-79.5,56.49-134.95,128.74-128.74,18.5,1.54,34,3.69,44.63,7.85"/><polyline class="cls-1" points="169.37 215.45 199.74 200.88 185.16 170.53"/><path class="cls-2" d="M156.93,335.23a26.69,26.69,0,0,1-2.36,10.33,37.9,37.9,0,0,1-20.29,19.61A46.37,46.37,0,0,1,116,368.52,63.33,63.33,0,0,1,101.6,367a38.55,38.55,0,0,1-21.51-13,49.36,49.36,0,0,1-6.75-10.54A54.2,54.2,0,0,1,69.2,331a67,67,0,0,1-1.4-14.05,62.1,62.1,0,0,1,3.48-21.62A46,46,0,0,1,81.34,279a43.85,43.85,0,0,1,15.35-10.33,49.6,49.6,0,0,1,18.76-3.55A46.88,46.88,0,0,1,137.08,270a39.3,39.3,0,0,1,14.53,12q5.05,7.13,5,13.47a8.8,8.8,0,0,1-2.45,6.15,7.88,7.88,0,0,1-5.94,2.66c-2.6,0-4.56-.62-5.86-1.84a25.72,25.72,0,0,1-4.34-6.35,30.36,30.36,0,0,0-9.31-11.12,22.76,22.76,0,0,0-13.2-3.69q-12.49,0-19.88,9.49t-7.4,26.94q0,11.67,3.27,19.42a24.62,24.62,0,0,0,9.28,11.56,25.71,25.71,0,0,0,14.06,3.82,24.72,24.72,0,0,0,14.76-4.33q6-4.35,9.11-12.72A21.36,21.36,0,0,1,142,329c1.27-1.66,3.31-2.5,6.14-2.5a8.63,8.63,0,0,1,6.21,2.53A8.44,8.44,0,0,1,156.93,335.23Z"/><path class="cls-2" d="M176,356.17V277.38q0-6.15,2.8-9.21A9.31,9.31,0,0,1,186,265.1a9.65,9.65,0,0,1,7.41,3q2.82,3,2.82,9.25v78.79q0,6.19-2.82,9.28a9.65,9.65,0,0,1-7.41,3.07,9.32,9.32,0,0,1-7.19-3.11Q176,362.32,176,356.17Z"/><path class="cls-2" d="M356.08,155.72a24.84,24.84,0,0,1-2.19,9.63A35.27,35.27,0,0,1,335,183.63a43.22,43.22,0,0,1-17,3.12,60,60,0,0,1-13.42-1.39,37.85,37.85,0,0,1-11-4.36,37.11,37.11,0,0,1-9.06-7.79,46.68,46.68,0,0,1-6.29-9.83,50.59,50.59,0,0,1-3.95-11.6,62.67,62.67,0,0,1-1.31-13.1,58.1,58.1,0,0,1,3.27-20.16,43.16,43.16,0,0,1,9.36-15.23,41,41,0,0,1,14.31-9.63,46.33,46.33,0,0,1,17.48-3.31,43.77,43.77,0,0,1,20.17,4.51A36.67,36.67,0,0,1,351,106q4.71,6.65,4.71,12.56a8.16,8.16,0,0,1-2.29,5.72,7.26,7.26,0,0,1-5.53,2.49,7.61,7.61,0,0,1-5.44-1.72,23.64,23.64,0,0,1-4-5.91,28.66,28.66,0,0,0-8.68-10.4,21.2,21.2,0,0,0-12.3-3.43q-11.64,0-18.54,8.84T292,139.28q0,10.89,3.05,18.09a22.88,22.88,0,0,0,8.65,10.79,24,24,0,0,0,13.15,3.59,23,23,0,0,0,13.76-4,24.44,24.44,0,0,0,8.5-11.87,20.34,20.34,0,0,1,3-6c1.19-1.53,3.12-2.31,5.72-2.31a8,8,0,0,1,5.8,2.36A7.79,7.79,0,0,1,356.08,155.72Z"/><path class="cls-2" d="M384.76,91.94h24.6a66.71,66.71,0,0,1,16.48,1.78,30.34,30.34,0,0,1,12.48,6.68q14.55,12.48,14.55,37.9a73.66,73.66,0,0,1-1.46,15.32,45.18,45.18,0,0,1-4.51,12.48,38.92,38.92,0,0,1-7.83,10,32.5,32.5,0,0,1-8.2,5.41,37.18,37.18,0,0,1-9.57,2.86,73.1,73.1,0,0,1-11.54.82H385.15c-3.45,0-6-.52-7.76-1.56a7.19,7.19,0,0,1-3.41-4.39,27.91,27.91,0,0,1-.79-7.34V103.52q0-6.1,2.73-8.84C377.74,92.86,380.69,91.94,384.76,91.94Zm7.28,15v63.32h14.31c3.14,0,5.6-.09,7.37-.25a23.27,23.27,0,0,0,5.53-1.28,15,15,0,0,0,5-2.86q9.5-8,9.48-27.6,0-13.78-4.16-20.66t-10.28-8.75a50.26,50.26,0,0,0-14.74-1.87Z"/></g></g></g><polyline class="cls-1" points="407.23 299.04 407.23 384.46 286.41 384.46"/><polyline class="cls-1" points="90.57 150.06 90.57 67.8 214.83 67.8"/></g></g></svg>