<svg xmlns="http://www.w3.org/2000/svg" viewBox="0 0 499.53 445.81"><defs><style>.cls-1{fill:none;stroke:#009fff;stroke-miterlimit:10;stroke-width:17px;}</style></defs><g id="Layer_2" data-name="Layer 2"><g id="security"><path class="cls-1" d="M116,283.92H88.17a79.68,79.68,0,0,1,0-159.35h11.5c3-64.5,69.81-116.07,151.88-116.07S400.46,60.07,403.42,124.57h7.94a79.68,79.68,0,0,1,0,159.35H383.54"/><path class="cls-1" d="M185.36,205.22V159.5a64.4,64.4,0,1,1,128.8,0v45.72"/><rect class="cls-1" x="115.99" y="205.23" width="267.55" height="232.08" rx="20.72"/><path class="cls-1" d="M282,294.94a32.2,32.2,0,1,0-45.59,29.27v47.58a13.39,13.39,0,0,0,26.78,0V324.21A32.19,32.19,0,0,0,282,294.94Z"/></g></g></svg>