<svg xmlns="http://www.w3.org/2000/svg" viewBox="0 0 497.11 497.11"><defs><style>.cls-1,.cls-2{fill:none;stroke:#009fff;stroke-miterlimit:10;stroke-width:17px;}.cls-2{stroke-linecap:round;}.cls-3{fill:#009fff;}</style></defs><g id="Layer_2" data-name="Layer 2"><g id="alarm"><g id="v2"><circle class="cls-1" cx="248.56" cy="248.56" r="240.06" transform="translate(-102.95 248.56) rotate(-45)"/><path class="cls-2" d="M384.55,161.07a118.08,118.08,0,0,1,0,178.8"/><path class="cls-2" d="M357.88,200a66.7,66.7,0,0,1,0,101"/><path class="cls-2" d="M126.13,200a66.7,66.7,0,0,0,0,101"/><path class="cls-2" d="M101,339.87a118.08,118.08,0,0,1,0-178.8"/><rect class="cls-1" x="175.96" y="123.13" width="139.19" height="248.38" rx="26.13"/><path class="cls-3" d="M236.33,261.88l-2.7-40.35q-.75-11.79-.76-16.93,0-7,3.67-10.91a12.57,12.57,0,0,1,9.64-3.91q7.24,0,9.69,5t2.44,14.45a111,111,0,0,1-.59,11.28l-3.62,41.53q-.58,7.41-2.53,11.37a6.61,6.61,0,0,1-6.4,4,6.38,6.38,0,0,1-6.32-3.84C237.68,271,236.83,267.1,236.33,261.88Zm9.35,55.42a13.23,13.23,0,0,1-9-3.33c-2.56-2.21-3.84-5.32-3.84-9.3a12.51,12.51,0,0,1,12.64-12.55,12.48,12.48,0,0,1,9.05,3.66,12,12,0,0,1,3.75,8.89q0,5.9-3.79,9.26A12.87,12.87,0,0,1,245.68,317.3Z"/></g></g></g></svg>