<svg xmlns="http://www.w3.org/2000/svg" viewBox="0 0 499.24 499.24"><defs><style>.cls-1,.cls-2{fill:none;stroke:#009fff;stroke-miterlimit:10;stroke-width:17px;}.cls-2{stroke-linecap:round;}.cls-3{fill:#009fff;}</style></defs><g id="Layer_2" data-name="Layer 2"><g id="event"><circle class="cls-1" cx="249.62" cy="249.62" r="241.12"/><line class="cls-1" x1="306.91" y1="145.68" x2="187.69" y2="145.68"/><path class="cls-1" d="M328.08,145.68h46a18.24,18.24,0,0,1,18.18,18.18V354.23a18.23,18.23,0,0,1-18.18,18.19h-249a18.24,18.24,0,0,1-18.19-18.19V163.86a18.25,18.25,0,0,1,18.19-18.18h41.38"/><line class="cls-1" x1="306.91" y1="145.68" x2="187.69" y2="145.68"/><path class="cls-1" d="M328.08,145.68h46a18.24,18.24,0,0,1,18.18,18.18v38.72H106.94V163.86a18.25,18.25,0,0,1,18.19-18.18h41.38"/><polyline class="cls-2" points="205.94 277.72 236.1 310.18 300.12 244.36"/><path class="cls-3" d="M317.49,110.08a10.61,10.61,0,0,1,10.59,10.58v35.77A10.62,10.62,0,0,1,317.49,167h0a10.62,10.62,0,0,1-10.58-10.59V120.66a10.61,10.61,0,0,1,10.58-10.58h0m0-17a27.61,27.61,0,0,0-27.58,27.58v35.77a27.59,27.59,0,1,0,55.17,0V120.66a27.61,27.61,0,0,0-27.59-27.58Z"/><path class="cls-3" d="M177.1,110.08a10.61,10.61,0,0,1,10.59,10.58v35.77A10.62,10.62,0,0,1,177.1,167h0a10.62,10.62,0,0,1-10.58-10.59V120.66a10.61,10.61,0,0,1,10.58-10.58h0m0-17a27.61,27.61,0,0,0-27.58,27.58v35.77a27.59,27.59,0,1,0,55.17,0V120.66A27.61,27.61,0,0,0,177.1,93.08Z"/></g></g></svg>