<svg xmlns="http://www.w3.org/2000/svg" viewBox="0 0 499.45 449.62"><defs><style>.cls-1,.cls-2{fill:none;stroke:#009fff;stroke-miterlimit:10;stroke-width:17px;}.cls-2{stroke-linecap:round;}</style></defs><g id="Layer_2" data-name="Layer 2"><g id="control_plane" data-name="control plane"><g id="v1"><rect class="cls-1" x="8.5" y="8.5" width="482.45" height="432.62" rx="46.06"/><circle class="cls-1" cx="71.85" cy="65.51" r="15.78"/><circle class="cls-1" cx="132.34" cy="65.51" r="15.78"/><circle class="cls-1" cx="193.63" cy="65.51" r="15.78"/><line class="cls-1" x1="8.5" y1="120.97" x2="490.95" y2="120.97"/><line class="cls-2" x1="120.98" y1="391.41" x2="120.98" y2="370.51"/><line class="cls-2" x1="120.98" y1="305.42" x2="120.98" y2="191.49"/><line class="cls-2" x1="243.74" y1="391.41" x2="243.74" y2="324.09"/><line class="cls-2" x1="243.74" y1="259.17" x2="243.74" y2="191.49"/><line class="cls-2" x1="368.22" y1="391.41" x2="368.22" y2="284.3"/><line class="cls-2" x1="368.22" y1="217.46" x2="368.22" y2="191.49"/><path class="cls-2" d="M121,367.67a30.14,30.14,0,1,1,30.14-30.14A30.17,30.17,0,0,1,121,367.67Z"/><path class="cls-2" d="M243.73,321.59a30.14,30.14,0,1,1,30.15-30.14A30.17,30.17,0,0,1,243.73,321.59Z"/><path class="cls-2" d="M368.22,280.06a30.14,30.14,0,1,1,30.14-30.14A30.17,30.17,0,0,1,368.22,280.06Z"/></g></g></g></svg>