<svg xmlns="http://www.w3.org/2000/svg" viewBox="0 0 498.56 481.3"><defs><style>.cls-1,.cls-2,.cls-3{fill:none;stroke:#009fff;stroke-miterlimit:10;}.cls-1,.cls-2{stroke-width:17px;}.cls-2{stroke-linecap:round;}.cls-3{stroke-width:21.46px;}</style></defs><g id="Layer_2" data-name="Layer 2"><g id="analysis"><path class="cls-1" d="M377.46,328.54v123.9A20.37,20.37,0,0,1,357.1,472.8H28.71A20.21,20.21,0,0,1,8.5,452.58v-311a20.1,20.1,0,0,1,20.09-20.09H173.66"/><path class="cls-1" d="M404.15,310.17V114.76a20,20,0,0,0-20-20H188.07"/><path class="cls-1" d="M164.89,147.25H324.74a21.76,21.76,0,0,1,0,43.51H164.89"/><path class="cls-1" d="M177,237.37H324.74a21.76,21.76,0,0,1,0,43.51H201.57"/><line class="cls-2" x1="63.62" y1="202.47" x2="114.25" y2="202.47"/><line class="cls-2" x1="63.62" y1="268.55" x2="114.25" y2="268.55"/><line class="cls-2" x1="63.62" y1="336.34" x2="168.95" y2="336.34"/><line class="cls-2" x1="63.62" y1="404.12" x2="296.11" y2="404.12"/><circle class="cls-3" cx="324.52" cy="174.04" r="163.31" transform="translate(-28.01 280.45) rotate(-45)"/></g></g></svg>