<?xml version="1.0" encoding="UTF-8"?><svg id="Layer_2" xmlns="http://www.w3.org/2000/svg" viewBox="0 0 500.39 416.32"><g id="time"><g id="v2"><path d="m296.7,43.51c-27.84-15.43-59.88-24.2-93.95-24.2C95.46,19.31,8.5,106.28,8.5,213.56s86.96,194.26,194.25,194.26c100.45,0,183.1-76.26,193.21-174.05" style="fill:none; stroke:#009eff; stroke-miterlimit:10; stroke-width:17px;"/><circle cx="378.6" cy="121.79" r="113.29" style="fill:none; stroke:#009eff; stroke-miterlimit:10; stroke-width:17px;"/><path d="m408.78,121.57c3.74,5.17,5.61,11.55,5.61,19.14,0,9.57-3.08,17.43-9.24,23.59-4.07,3.85-9.13,6.54-15.18,8.08v7.75c0,2.64-.94,4.87-2.8,6.68-1.87,1.81-4.12,2.72-6.76,2.72h-1.48c-2.64,0-4.89-.91-6.76-2.72-1.87-1.81-2.8-4.04-2.8-6.68v-7.75c-.99-.22-1.95-.47-2.89-.74-.94-.27-1.9-.58-2.89-.91-4.62-1.65-8.69-3.79-12.21-6.43-2.09-1.54-3.36-3.52-3.79-5.94-.44-2.42,0-4.73,1.32-6.93l.99-1.48c1.32-2.09,3.35-3.52,6.1-4.29,2.64-.55,5.06-.05,7.26,1.48,1.1.66,2.31,1.35,3.63,2.06,1.32.72,2.75,1.4,4.29,2.06,2.31.99,5.33,1.48,9.07,1.48,1.98,0,3.96-.27,5.94-.82,1.76-.66,3.13-1.43,4.12-2.31,1.1-1.1,1.92-2.2,2.47-3.3.55-1.65.82-3.46.82-5.44,0-1.21-.08-2.45-.25-3.71-.17-1.26-.63-2.34-1.4-3.22-.55-.66-1.51-1.46-2.89-2.39-1.38-.93-3.38-1.9-6.02-2.89h-.17l-6.6-2.47c-3.85-1.54-7.29-3.19-10.31-4.95-3.03-1.76-5.64-3.79-7.84-6.1-5.06-5.17-7.59-12.43-7.59-21.78,0-4.73.71-8.85,2.14-12.37,1.43-3.74,3.63-6.98,6.6-9.73,2.64-2.64,5.72-4.62,9.24-5.94.22-.22.5-.36.82-.41.33-.05.6-.14.82-.25v-6.27c0-2.64.93-4.89,2.8-6.76,1.87-1.87,4.12-2.8,6.76-2.8h1.48c2.64,0,4.89.94,6.76,2.8,1.87,1.87,2.8,4.12,2.8,6.76v4.95c1.1.22,2.17.47,3.22.74,1.04.28,2.06.58,3.05.91,4.29,1.54,7.75,3.25,10.39,5.11,2.2,1.32,3.6,3.19,4.21,5.61.6,2.42.3,4.73-.91,6.93l-.82,1.48c-1.32,2.31-3.3,3.9-5.94,4.78-2.42.66-4.89.28-7.42-1.15-1.1-.66-2.23-1.24-3.38-1.73-1.15-.49-2.34-1.02-3.55-1.57-1.87-.77-4.35-1.15-7.42-1.15-3.85,0-6.71.88-8.58,2.64-.22.22-.66.82-1.32,1.81s-.99,2.86-.99,5.61c0,1.32.05,2.39.17,3.22.11.82.27,1.46.49,1.9.33,1.21.82,2.09,1.48,2.64.88.88,1.92,1.71,3.13,2.47.88.44,1.81.88,2.8,1.32.99.44,2.09.88,3.3,1.32h.16l8.08,3.13c8.36,3.19,14.29,7.26,17.82,12.21Z" style="fill:#009eff;"/><path d="m281.71,299.65l-69.1-68.65c1.4-2.97,2.21-6.28,2.21-9.78,0-9.47-5.74-17.6-13.93-21.11v-75.65c0-4.98-4.04-9.03-9.03-9.03h0c-4.98,0-9.03,4.04-9.03,9.03v75.65c-8.19,3.51-13.93,11.64-13.93,21.11,0,12.68,10.28,22.96,22.96,22.96,2.45,0,4.8-.39,7.01-1.1l69.96,69.46c3.56,3.56,9.32,3.56,12.88,0,3.56-3.56,3.56-9.32,0-12.88Z" style="fill:#009eff;"/></g></g></svg>