<svg xmlns="http://www.w3.org/2000/svg" viewBox="0 0 493.75 452.23"><defs><style>.cls-1,.cls-2,.cls-3{fill:none;stroke:#009fff;stroke-miterlimit:10;stroke-width:17px;}.cls-2,.cls-3{stroke-linecap:round;}.cls-3{opacity:0.9;}</style></defs><g id="Layer_2" data-name="Layer 2"><g id="server"><g id="v2"><rect class="cls-1" x="9.59" y="326.43" width="475.67" height="117.3" rx="58.65"/><circle class="cls-1" cx="320.14" cy="385.68" r="22.02"/><circle class="cls-1" cx="404.55" cy="385.68" r="22.02"/><line class="cls-2" x1="75.93" y1="387.7" x2="247.42" y2="387.7"/><path class="cls-1" d="M397.34,120.53h-7.66c-2.86-62.25-67.37-112-146.59-112S99.36,58.28,96.51,120.53H85.4a77.13,77.13,0,0,0-76.9,76.9h0a77.13,77.13,0,0,0,76.9,76.9H397.34a77.13,77.13,0,0,0,76.9-76.9h0A77.13,77.13,0,0,0,397.34,120.53Z"/><circle class="cls-1" cx="244.5" cy="148.53" r="83.04"/><polyline class="cls-3" points="211.78 148.53 235.08 173.6 284.53 122.76"/></g></g></g></svg>