<svg xmlns="http://www.w3.org/2000/svg" viewBox="0 0 499.82 443.37"><defs><style>.cls-1{fill:none;stroke:#009fff;stroke-miterlimit:10;stroke-width:17px;}.cls-2{fill:#009fff;}</style></defs><g id="Layer_2" data-name="Layer 2"><g id="guide"><path class="cls-1" d="M60.86,8.5H337.11a22.17,22.17,0,0,1,22.17,22.17v382a22.17,22.17,0,0,1-22.17,22.17H60.86A52.36,52.36,0,0,1,8.5,382.51V60.86A52.36,52.36,0,0,1,60.86,8.5Z"/><path class="cls-1" d="M90,310.22H301.51a15.36,15.36,0,0,1,15.36,15.36v53.32a15.36,15.36,0,0,1-15.36,15.36H90a42,42,0,0,1-42-42v0a42,42,0,0,1,42-42Z"/><circle class="cls-1" cx="185.46" cy="156.1" r="91.72"/><path class="cls-2" d="M185.56,119.13a9.73,9.73,0,0,1-6.59-2.37,9.17,9.17,0,0,1,.07-13.15,9.41,9.41,0,0,1,6.52-2.53,9.65,9.65,0,0,1,6.36,2.3,8.21,8.21,0,0,1,2.77,6.69,8.46,8.46,0,0,1-2.71,6.66A9.39,9.39,0,0,1,185.56,119.13Z"/><path class="cls-2" d="M194.69,145.52v53.34c0,3.69-.88,6.49-2.64,8.38a8.75,8.75,0,0,1-6.69,2.84,8.32,8.32,0,0,1-6.59-2.91q-2.53-2.91-2.54-8.31V146.07c0-3.66.85-6.4,2.54-8.25a8.5,8.5,0,0,1,6.59-2.77,8.83,8.83,0,0,1,6.69,2.77Q194.69,140.59,194.69,145.52Z"/><path class="cls-1" d="M413.36,299.75l77.75-80.27a.84.84,0,0,0,0-1.11l-77.75-80.26c-.37-.38-.91-.05-.91.55v46.15H359.37c-.11,0-.11,68.23,0,68.23h53.08v46.15C412.45,299.79,413,300.13,413.36,299.75Z"/></g></g></svg>