<svg xmlns="http://www.w3.org/2000/svg" viewBox="0 0 498.52 498.52"><defs><style>.cls-1,.cls-2,.cls-3,.cls-4{fill:none;stroke:#009fff;stroke-miterlimit:10;stroke-width:17px;}.cls-2{stroke-dasharray:17.18 17.18;}.cls-3{stroke-dasharray:17.18 17.18;}.cls-4{stroke-linecap:round;}</style></defs><g id="Layer_2" data-name="Layer 2"><g id="reduce"><polyline class="cls-1" points="220.98 369.64 8.5 369.64 8.5 8.5 367.86 8.5 367.86 220.21"/><polyline class="cls-1" points="490.02 481.31 490.02 490.02 481.31 490.02"/><line class="cls-2" x1="464.13" y1="490.02" x2="266.56" y2="490.02"/><polyline class="cls-1" points="257.97 490.02 249.26 490.02 249.26 481.31"/><line class="cls-3" x1="249.26" y1="464.13" x2="249.26" y2="266.56"/><polyline class="cls-1" points="249.26 257.97 249.26 249.26 257.97 249.26"/><line class="cls-2" x1="275.15" y1="249.26" x2="472.72" y2="249.26"/><polyline class="cls-1" points="481.31 249.26 490.02 249.26 490.02 257.97"/><line class="cls-3" x1="490.02" y1="275.15" x2="490.02" y2="472.72"/><polyline class="cls-4" points="215.88 95.5 215.88 215.88 95.5 215.88"/><line class="cls-1" x1="215.88" y1="215.88" x2="8.5" y2="8.5"/></g></g></svg>