<svg xmlns="http://www.w3.org/2000/svg" viewBox="0 0 499.08 491.2"><defs><style>.cls-1,.cls-2{fill:none;stroke:#009fff;stroke-miterlimit:10;stroke-width:17px;}.cls-2{stroke-linecap:round;}</style></defs><g id="Layer_2" data-name="Layer 2"><g id="cloud"><path class="cls-1" d="M450,273.34A79.6,79.6,0,0,0,411,124.46h-7.92c-3-64.44-69.75-116-151.74-116S102.55,60,99.59,124.46H88.1A79.51,79.51,0,0,0,31.88,260.28,80.69,80.69,0,0,0,49,273.34"/><path class="cls-1" d="M356.62,373.07h32.21a68.89,68.89,0,0,0,68.68-68.68A68.12,68.12,0,0,0,450,273.33a69.36,69.36,0,0,0-12.71-17.45,68.43,68.43,0,0,0-48.5-20.17H382c-2.54-55.59-60.16-100.05-130.92-100.05S122.71,180.12,120.16,235.71h-9.92A68.89,68.89,0,0,0,49,273.33a68.75,68.75,0,0,0,61.21,99.74h32.21"/><circle class="cls-1" cx="249.54" cy="375.59" r="107.11"/><line class="cls-2" x1="200.37" y1="375.59" x2="298.71" y2="375.59"/><line class="cls-2" x1="249.54" y1="424.76" x2="249.54" y2="326.43"/></g></g></svg>