<svg xmlns="http://www.w3.org/2000/svg" viewBox="0 0 499.85 499.85"><defs><style>.cls-1{fill:none;stroke:#009fff;stroke-miterlimit:10;stroke-width:17px;}</style></defs><g id="Layer_2" data-name="Layer 2"><g id="cloud_scaling" data-name="cloud scaling"><rect class="cls-1" x="64.43" y="64.43" width="370.99" height="370.99"/><polyline class="cls-1" points="249.93 491.35 8.5 491.35 8.5 249.93"/><polyline class="cls-1" points="249.93 8.5 491.35 8.5 491.35 249.93"/><path class="cls-1" d="M334.32,235.34h-4.13C328.66,201.81,293.91,175,251.25,175s-77.41,26.81-78.95,60.34h-6a41.53,41.53,0,0,0-41.41,41.41h0a41.54,41.54,0,0,0,41.41,41.42h168a41.54,41.54,0,0,0,41.41-41.42h0A41.53,41.53,0,0,0,334.32,235.34Z"/></g></g></svg>