<?xml version="1.0" encoding="UTF-8"?><svg id="Layer_2" xmlns="http://www.w3.org/2000/svg" viewBox="0 0 510.6 474.76"><g id="Layer_56"><g id="v2"><path d="m30.12,278.72c19.45,106.67,112.85,187.54,225.15,187.54s205.7-80.86,225.15-187.54" style="fill:none; stroke:#009eff; stroke-linecap:round; stroke-miterlimit:10; stroke-width:17px;"/><path d="m30.12,196.05C49.57,89.37,142.97,8.5,255.27,8.5s205.7,80.87,225.15,187.55" style="fill:none; stroke:#009eff; stroke-linecap:round; stroke-miterlimit:10; stroke-width:17px;"/></g><path d="m219.07,196.29v-66.52c0-9.64,7.89-17.53,17.53-17.53h47.11c9.65,0,17.53,7.9,17.53,17.53v66.52" style="fill:none; stroke:#009eff; stroke-linecap:round; stroke-miterlimit:10; stroke-width:17px;"/><path d="m301.25,278.47v66.52c0,9.65-7.89,17.53-17.53,17.53h-47.11c-9.65,0-17.53-7.89-17.53-17.53v-66.52" style="fill:none; stroke:#009eff; stroke-linecap:round; stroke-miterlimit:10; stroke-width:17px;"/><path d="m301.25,196.29h66.52c9.65,0,17.53,7.9,17.53,17.53v47.12c0,9.65-7.89,17.53-17.53,17.53h-66.52" style="fill:none; stroke:#009eff; stroke-linecap:round; stroke-miterlimit:10; stroke-width:17px;"/><path d="m219.07,278.47h-66.52c-9.65,0-17.53-7.89-17.53-17.53v-47.12c0-9.64,7.89-17.53,17.53-17.53h66.52" style="fill:none; stroke:#009eff; stroke-linecap:round; stroke-miterlimit:10; stroke-width:17px;"/><polyline points="53.02 197.45 25.39 214.35 8.5 186.72" style="fill:none; stroke:#009eff; stroke-linecap:round; stroke-miterlimit:10; stroke-width:17px;"/><polyline points="456.44 279.5 481.04 258.43 502.1 283.02" style="fill:none; stroke:#009eff; stroke-linecap:round; stroke-miterlimit:10; stroke-width:17px;"/></g></svg>