<svg xmlns="http://www.w3.org/2000/svg" viewBox="0 0 500.42 467.13"><defs><style>.cls-1{fill:#009fff;}.cls-2{fill:none;stroke:#009fff;stroke-miterlimit:10;stroke-width:17px;}</style></defs><g id="Layer_2" data-name="Layer 2"><g id="reuse"><path class="cls-1" d="M17,204.56l99.56,57.64L96.49,273.78,84.06,281l5,13.45A172.35,172.35,0,0,0,250.67,407H251A172.77,172.77,0,0,0,412.11,295.62l37.94,21.58a215.54,215.54,0,0,1-396.72,3.4l-7.62-17.48-16.5,9.57L17,319.77V204.56M0,175.08V349.29l37.74-21.9C75.87,414.9,161.37,467.13,251.09,467.13a232.83,232.83,0,0,0,220-157.52l-69-39.23A155.78,155.78,0,0,1,250.94,390h-.27A155.35,155.35,0,0,1,105,288.51l45.56-26.28L0,175.08Z"/><path class="cls-1" d="M249.32,0l0,17A215.69,215.69,0,0,1,447.1,146.53L454.72,164l16.49-9.57,12.21-7.08V262.6l-99.85-57.69,20.05-11.56,12.43-7.17-5-13.46A172.55,172.55,0,0,0,276.42,62.32a174.69,174.69,0,0,0-27.17-2.14A172.3,172.3,0,0,0,89.77,167.6L52.05,146A215.87,215.87,0,0,1,249.32,17V0m0,0A232.8,232.8,0,0,0,30.8,153.36l68.5,39.31a155.42,155.42,0,0,1,150-115.49,157.13,157.13,0,0,1,24.51,1.93,155.35,155.35,0,0,1,121.37,99.51l-45.56,26.27,150.85,87.16V117.84l-37.74,21.89C424.55,52.23,339.06,0,249.34,0Z"/><circle class="cls-2" cx="248.52" cy="239.22" r="63.41"/></g></g></svg>