<svg xmlns="http://www.w3.org/2000/svg" viewBox="0 0 499.18 499.18"><defs><style>.cls-1{fill:none;stroke:#009fff;stroke-miterlimit:10;stroke-width:17px;}</style></defs><g id="Layer_2" data-name="Layer 2"><g id="management_cluster" data-name="management cluster"><g id="v2"><path class="cls-1" d="M56.38,210.87a197.25,197.25,0,0,1,149.4-153.4"/><path class="cls-1" d="M293.4,441.72A197.29,197.29,0,0,0,440.5,298.44"/><path class="cls-1" d="M58.68,298.44a197.29,197.29,0,0,0,147.1,143.28"/><path class="cls-1" d="M293.4,57.47a197.25,197.25,0,0,1,149.4,153.4"/><circle class="cls-1" cx="249.59" cy="52.58" r="44.08"/><circle class="cls-1" cx="249.59" cy="446.61" r="44.08"/><circle class="cls-1" cx="52.58" cy="254.79" r="44.08"/><circle class="cls-1" cx="446.61" cy="254.79" r="44.08"/><path class="cls-1" d="M352.18,272V227.15H322.56a75.55,75.55,0,0,0-5.51-13.27l20.95-21-31.74-31.74-20.95,20.95A77,77,0,0,0,272,176.62V147H227.15v29.62a76.32,76.32,0,0,0-13.27,5.51l-21-20.95-31.74,31.74,21,21a75.58,75.58,0,0,0-5.52,13.27H147V272h29.62a75.9,75.9,0,0,0,5.52,13.27l-21,20.95L192.92,338l21-20.95a75.55,75.55,0,0,0,13.27,5.51v29.62H272V322.56a76.19,76.19,0,0,0,13.27-5.51L306.26,338,338,306.26l-20.95-20.95A75.86,75.86,0,0,0,322.56,272ZM249.59,286.15a35.26,35.26,0,1,1,35.25-35.25A35.25,35.25,0,0,1,249.59,286.15Z"/></g></g></g></svg>