<svg xmlns="http://www.w3.org/2000/svg" viewBox="0 0 500.08 416.05"><defs><style>.cls-1,.cls-3{fill:none;stroke:#009fff;stroke-miterlimit:10;stroke-width:17px;}.cls-1{stroke-linecap:round;}.cls-2{fill:#009fff;}</style></defs><g id="Layer_2" data-name="Layer 2"><g id="_24_7" data-name="24/7"><g id="v2"><path class="cls-1" d="M331.93,175.54a71.1,71.1,0,0,1,0-107.64"/><path class="cls-1" d="M424.78,67.9a71.08,71.08,0,0,1,0,107.64"/><path class="cls-1" d="M402.75,91.32a40.16,40.16,0,0,1,0,60.8"/><path class="cls-1" d="M353,91.32a40.14,40.14,0,0,0,0,60.8"/><circle class="cls-2" cx="378.36" cy="121.72" r="15.66"/><path class="cls-3" d="M296.51,43.49A193.09,193.09,0,0,0,202.63,19.3C95.41,19.3,8.5,106.22,8.5,213.43S95.41,407.55,202.63,407.55c100.39,0,183-76.2,193.08-173.94"/><circle class="cls-3" cx="378.36" cy="121.72" r="113.22"/><path class="cls-2" d="M281.54,299.46l-69.06-68.61a22.69,22.69,0,0,0,2.21-9.77A22.93,22.93,0,0,0,200.77,200v-75.6a9,9,0,0,0-9-9h0a9,9,0,0,0-9,9V200a22.94,22.94,0,0,0,16,42.94l69.92,69.42a9.1,9.1,0,0,0,12.87-12.88Z"/></g></g></g></svg>