<?xml version="1.0" encoding="UTF-8"?><svg id="Layer_2" xmlns="http://www.w3.org/2000/svg" viewBox="0 0 500.24 451.61"><g id="downtime"><path d="m385.8,284.32h26.15c43.88,0,79.79-35.9,79.79-79.79,0-21.94-8.98-41.89-23.44-56.36-14.46-14.46-34.4-23.44-56.35-23.44h-7.95c-2.96-64.59-69.91-116.24-152.09-116.24S102.77,60.15,99.81,124.74h-11.52c-43.88,0-79.79,35.91-79.79,79.8,0,21.94,8.98,41.89,23.44,56.36,14.46,14.45,34.41,23.43,56.35,23.43h24.75" style="fill:none; stroke:#009eff; stroke-miterlimit:10; stroke-width:17px;"/><circle cx="249.42" cy="305.15" r="137.96" style="fill:none; stroke:#009eff; stroke-miterlimit:10; stroke-width:17px;"/><path d="m264.9,249.02c.09,0,.16.07.16.16v62.1h35.78c.38,0,.59.44.35.74l-51.32,63.2c-.09.11-.22.17-.35.17s-.26-.06-.35-.17l-51.32-63.2c-.24-.3-.03-.74.35-.74h35.78v-62.1c0-.09.07-.16.16-.16h30.76m0-17h-30.76c-9.46,0-17.16,7.7-17.16,17.16v45.1h-18.78c-6.69,0-12.88,3.91-15.76,9.95-2.88,6.04-2.01,13.31,2.21,18.51l51.32,63.2c3.33,4.1,8.27,6.45,13.55,6.45s10.22-2.35,13.55-6.45l51.32-63.21c4.22-5.2,5.09-12.46,2.21-18.51-2.88-6.04-9.06-9.95-15.76-9.95h-18.78v-45.1c0-9.46-7.7-17.16-17.16-17.16h0Z" style="fill:#009eff;"/></g></svg>