<svg xmlns="http://www.w3.org/2000/svg" viewBox="0 0 499.45 457.05"><defs><style>.cls-1,.cls-2{fill:none;stroke:#009fff;stroke-miterlimit:10;stroke-width:17px;}.cls-2{stroke-linecap:round;}</style></defs><g id="Layer_2" data-name="Layer 2"><g id="webinar"><g id="v2"><path class="cls-1" d="M444.27,8.5H55.19A46.82,46.82,0,0,0,8.5,55.18V307.77a46.83,46.83,0,0,0,46.69,46.69H198.57V397.9H151a25.4,25.4,0,0,0-25.33,25.32h0A25.41,25.41,0,0,0,151,448.55H348.46a25.4,25.4,0,0,0,25.32-25.33h0a25.4,25.4,0,0,0-25.32-25.32H301.67V354.46h142.6A46.82,46.82,0,0,0,491,307.77V55.18A46.82,46.82,0,0,0,444.27,8.5Z"/><rect class="cls-1" x="58.38" y="59.67" width="382.69" height="205.85" rx="26.37"/><circle class="cls-1" cx="161.05" cy="141.53" r="36.77"/><path class="cls-1" d="M90.44,265.52a65.69,65.69,0,0,1,65.39-62.3h10.43a65.68,65.68,0,0,1,65.39,62.3"/><line class="cls-2" x1="266.04" y1="132.99" x2="392.02" y2="132.99"/><line class="cls-2" x1="266.04" y1="192.19" x2="392.02" y2="192.19"/></g></g></g></svg>