<svg xmlns="http://www.w3.org/2000/svg" viewBox="0 0 500.96 416.79"><defs><style>.cls-1,.cls-3{fill:none;stroke:#009fff;stroke-miterlimit:10;}.cls-1{stroke-width:17px;}.cls-2{fill:#009fff;}.cls-3{stroke-linecap:round;stroke-width:15.55px;}</style></defs><g id="Layer_2" data-name="Layer 2"><g id="issue_resolution" data-name="issue resolution"><g id="v2"><path class="cls-1" d="M297,43.55A193.4,193.4,0,0,0,203,19.32C95.57,19.32,8.5,106.39,8.5,213.8S95.57,408.29,203,408.29c100.57,0,183.31-76.36,193.43-174.26"/><circle class="cls-1" cx="379.03" cy="121.93" r="113.43"/><path class="cls-2" d="M282,300l-69.19-68.73a22.92,22.92,0,0,0-11.73-30.93V124.59a9,9,0,0,0-9-9h0a9,9,0,0,0-9,9v75.74a23,23,0,0,0,16,43l70,69.54A9.12,9.12,0,1,0,282,300Z"/></g><polyline class="cls-3" points="338.53 122.08 367.92 153.72 430.33 89.56"/></g></g></svg>