<?xml version="1.0" encoding="UTF-8"?><svg id="Layer_2" xmlns="http://www.w3.org/2000/svg" viewBox="0 0 454.02 498.97"><g id="postmortem"><path d="m38.6,425.71h376.81c16.61,0,30.1,13.49,30.1,30.1v34.66H8.5v-34.66c0-16.61,13.49-30.1,30.1-30.1Z" style="fill:none; stroke:#009eff; stroke-miterlimit:10; stroke-width:17px;"/><path d="m227.01,8.5h0c83.99,0,152.18,68.19,152.18,152.18v265.04H74.83V160.68c0-83.99,68.19-152.18,152.18-152.18Z" style="fill:none; stroke:#009eff; stroke-miterlimit:10; stroke-width:17px;"/><polyline points="243.21 128.48 286.2 128.48 286.2 160.88 243.21 160.88 243.21 152.49 243.21 250.59 210.81 250.59 210.81 152.49 210.81 160.88 167.81 160.88 167.81 128.48 210.81 128.48 210.81 137 210.81 79.92 243.21 79.92 243.21 137" style="fill:none; stroke:#009eff; stroke-miterlimit:10; stroke-width:17px;"/><line x1="136.88" y1="311.84" x2="317.14" y2="311.84" style="fill:none; stroke:#009eff; stroke-linecap:round; stroke-miterlimit:10; stroke-width:17px;"/><line x1="285.26" y1="357.7" x2="168.76" y2="357.7" style="fill:none; stroke:#009eff; stroke-linecap:round; stroke-miterlimit:10; stroke-width:17px;"/></g></svg>