<?xml version="1.0" encoding="us-ascii" standalone="no"?><svg xmlns="http://www.w3.org/2000/svg" xmlns:xlink="http://www.w3.org/1999/xlink" contentStyleType="text/css" height="664px" preserveAspectRatio="none" style="width:1601px;height:664px;background:#FFFFFF;" version="1.1" viewBox="0 0 1601 664" width="1601px" zoomAndPan="magnify"><defs/><g><rect fill="#FFA500" height="652.5859" style="stroke:#181818;stroke-width:0.5;" width="1110.5" x="75" y="6"/><text fill="#000000" font-family="sans-serif" font-size="13" font-weight="bold" lengthAdjust="spacing" textLength="157" x="551.75" y="18.0669">management cluster</text><rect fill="#008000" height="652.5859" style="stroke:#181818;stroke-width:0.5;" width="333" x="1260.5" y="6"/><text fill="#000000" font-family="sans-serif" font-size="13" font-weight="bold" lengthAdjust="spacing" textLength="128" x="1363" y="18.0669">workload cluster</text><line style="stroke:#181818;stroke-width:0.5;stroke-dasharray:5.0,5.0;" x1="37" x2="37" y1="81.2969" y2="579.2891"/><line style="stroke:#181818;stroke-width:0.5;stroke-dasharray:5.0,5.0;" x1="123" x2="123" y1="81.2969" y2="579.2891"/><line style="stroke:#181818;stroke-width:0.5;stroke-dasharray:5.0,5.0;" x1="212" x2="212" y1="81.2969" y2="579.2891"/><line style="stroke:#181818;stroke-width:0.5;stroke-dasharray:5.0,5.0;" x1="275" x2="275" y1="81.2969" y2="579.2891"/><line style="stroke:#181818;stroke-width:0.5;stroke-dasharray:5.0,5.0;" x1="532.5" x2="532.5" y1="81.2969" y2="579.2891"/><line style="stroke:#181818;stroke-width:0.5;stroke-dasharray:5.0,5.0;" x1="773" x2="773" y1="81.2969" y2="579.2891"/><line style="stroke:#181818;stroke-width:0.5;stroke-dasharray:5.0,5.0;" x1="899" x2="899" y1="81.2969" y2="579.2891"/><line style="stroke:#181818;stroke-width:0.5;stroke-dasharray:5.0,5.0;" x1="1085.5" x2="1085.5" y1="81.2969" y2="579.2891"/><line style="stroke:#181818;stroke-width:0.5;stroke-dasharray:5.0,5.0;" x1="1303.5" x2="1303.5" y1="81.2969" y2="579.2891"/><line style="stroke:#181818;stroke-width:0.5;stroke-dasharray:5.0,5.0;" x1="1409.5" x2="1409.5" y1="81.2969" y2="579.2891"/><line style="stroke:#181818;stroke-width:0.5;stroke-dasharray:5.0,5.0;" x1="1532.5" x2="1532.5" y1="81.2969" y2="579.2891"/><text fill="#000000" font-family="sans-serif" font-size="14" lengthAdjust="spacing" textLength="58" x="5" y="77.9951">User/Git</text><ellipse cx="37" cy="13.5" fill="#E2E2F0" rx="8" ry="8" style="stroke:#181818;stroke-width:0.5;"/><path d="M37,21.5 L37,48.5 M24,29.5 L50,29.5 M37,48.5 L24,63.5 M37,48.5 L50,63.5 " fill="none" style="stroke:#181818;stroke-width:0.5;"/><text fill="#000000" font-family="sans-serif" font-size="14" lengthAdjust="spacing" textLength="58" x="5" y="591.2842">User/Git</text><ellipse cx="37" cy="603.0859" fill="#E2E2F0" rx="8" ry="8" style="stroke:#181818;stroke-width:0.5;"/><path d="M37,611.0859 L37,638.0859 M24,619.0859 L50,619.0859 M37,638.0859 L24,653.0859 M37,638.0859 L50,653.0859 " fill="none" style="stroke:#181818;stroke-width:0.5;"/><rect fill="#FF4500" height="30.2969" rx="2.5" ry="2.5" style="stroke:#181818;stroke-width:0.5;" width="89" x="79" y="50"/><text fill="#000000" font-family="sans-serif" font-size="14" lengthAdjust="spacing" textLength="75" x="86" y="69.9951">Cluster CR</text><rect fill="#FF4500" height="30.2969" rx="2.5" ry="2.5" style="stroke:#181818;stroke-width:0.5;" width="89" x="79" y="578.2891"/><text fill="#000000" font-family="sans-serif" font-size="14" lengthAdjust="spacing" textLength="75" x="86" y="598.2842">Cluster CR</text><rect fill="#FF4500" height="30.2969" rx="2.5" ry="2.5" style="stroke:#181818;stroke-width:0.5;" width="68" x="178" y="50"/><text fill="#000000" font-family="sans-serif" font-size="14" lengthAdjust="spacing" textLength="54" x="185" y="69.9951">App CR</text><rect fill="#FF4500" height="30.2969" rx="2.5" ry="2.5" style="stroke:#181818;stroke-width:0.5;" width="68" x="178" y="578.2891"/><text fill="#000000" font-family="sans-serif" font-size="14" lengthAdjust="spacing" textLength="54" x="185" y="598.2842">App CR</text><text fill="#000000" font-family="sans-serif" font-size="14" lengthAdjust="spacing" textLength="33" x="256" y="77.9951">CAPI</text><ellipse cx="275.5" cy="49" fill="#0000FF" rx="12" ry="12" style="stroke:#181818;stroke-width:0.5;"/><polygon fill="#181818" points="271.5,37,277.5,32,275.5,37,277.5,42,271.5,37" style="stroke:#181818;stroke-width:1.0;"/><text fill="#000000" font-family="sans-serif" font-size="14" lengthAdjust="spacing" textLength="33" x="256" y="591.2842">CAPI</text><ellipse cx="275.5" cy="610.5859" fill="#0000FF" rx="12" ry="12" style="stroke:#181818;stroke-width:0.5;"/><polygon fill="#181818" points="271.5,598.5859,277.5,593.5859,275.5,598.5859,277.5,603.5859,271.5,598.5859" style="stroke:#181818;stroke-width:1.0;"/><text fill="#000000" font-family="sans-serif" font-size="14" lengthAdjust="spacing" textLength="160" x="449.5" y="77.9951">cluster-apps-operator</text><ellipse cx="532.5" cy="49" fill="#E2E2F0" rx="12" ry="12" style="stroke:#181818;stroke-width:0.5;"/><polygon fill="#181818" points="528.5,37,534.5,32,532.5,37,534.5,42,528.5,37" style="stroke:#181818;stroke-width:1.0;"/><text fill="#000000" font-family="sans-serif" font-size="14" lengthAdjust="spacing" textLength="160" x="449.5" y="591.2842">cluster-apps-operator</text><ellipse cx="532.5" cy="610.5859" fill="#E2E2F0" rx="12" ry="12" style="stroke:#181818;stroke-width:0.5;"/><polygon fill="#181818" points="528.5,598.5859,534.5,593.5859,532.5,598.5859,534.5,603.5859,528.5,598.5859" style="stroke:#181818;stroke-width:1.0;"/><rect fill="#E2E2F0" height="30.2969" rx="2.5" ry="2.5" style="stroke:#181818;stroke-width:0.5;" width="111" x="718" y="50"/><text fill="#000000" font-family="sans-serif" font-size="14" lengthAdjust="spacing" textLength="97" x="725" y="69.9951">cluster values</text><rect fill="#E2E2F0" height="30.2969" rx="2.5" ry="2.5" style="stroke:#181818;stroke-width:0.5;" width="111" x="718" y="578.2891"/><text fill="#000000" font-family="sans-serif" font-size="14" lengthAdjust="spacing" textLength="97" x="725" y="598.2842">cluster values</text><rect fill="#E2E2F0" height="30.2969" rx="2.5" ry="2.5" style="stroke:#181818;stroke-width:0.5;" width="120" x="839" y="50"/><text fill="#000000" font-family="sans-serif" font-size="14" lengthAdjust="spacing" textLength="106" x="846" y="69.9951">systemd proxy</text><rect fill="#E2E2F0" height="30.2969" rx="2.5" ry="2.5" style="stroke:#181818;stroke-width:0.5;" width="120" x="839" y="578.2891"/><text fill="#000000" font-family="sans-serif" font-size="14" lengthAdjust="spacing" textLength="106" x="846" y="598.2842">systemd proxy</text><text fill="#000000" font-family="sans-serif" font-size="14" lengthAdjust="spacing" textLength="186" x="989.5" y="77.9951">WC specific App operator</text><ellipse cx="1085.5" cy="49" fill="#E2E2F0" rx="12" ry="12" style="stroke:#181818;stroke-width:0.5;"/><polygon fill="#181818" points="1081.5,37,1087.5,32,1085.5,37,1087.5,42,1081.5,37" style="stroke:#181818;stroke-width:1.0;"/><text fill="#000000" font-family="sans-serif" font-size="14" lengthAdjust="spacing" textLength="186" x="989.5" y="591.2842">WC specific App operator</text><ellipse cx="1085.5" cy="610.5859" fill="#E2E2F0" rx="12" ry="12" style="stroke:#181818;stroke-width:0.5;"/><polygon fill="#181818" points="1081.5,598.5859,1087.5,593.5859,1085.5,598.5859,1087.5,603.5859,1081.5,598.5859" style="stroke:#181818;stroke-width:1.0;"/><rect fill="#FF4500" height="30.2969" rx="2.5" ry="2.5" style="stroke:#181818;stroke-width:0.5;" width="78" x="1264.5" y="50"/><text fill="#000000" font-family="sans-serif" font-size="14" lengthAdjust="spacing" textLength="64" x="1271.5" y="69.9951">Chart CR</text><rect fill="#FF4500" height="30.2969" rx="2.5" ry="2.5" style="stroke:#181818;stroke-width:0.5;" width="78" x="1264.5" y="578.2891"/><text fill="#000000" font-family="sans-serif" font-size="14" lengthAdjust="spacing" textLength="64" x="1271.5" y="598.2842">Chart CR</text><text fill="#000000" font-family="sans-serif" font-size="14" lengthAdjust="spacing" textLength="108" x="1352.5" y="77.9951">Chart operator</text><ellipse cx="1409.5" cy="49" fill="#E2E2F0" rx="12" ry="12" style="stroke:#181818;stroke-width:0.5;"/><polygon fill="#181818" points="1405.5,37,1411.5,32,1409.5,37,1411.5,42,1405.5,37" style="stroke:#181818;stroke-width:1.0;"/><text fill="#000000" font-family="sans-serif" font-size="14" lengthAdjust="spacing" textLength="108" x="1352.5" y="591.2842">Chart operator</text><ellipse cx="1409.5" cy="610.5859" fill="#E2E2F0" rx="12" ry="12" style="stroke:#181818;stroke-width:0.5;"/><polygon fill="#181818" points="1405.5,598.5859,1411.5,593.5859,1409.5,598.5859,1411.5,603.5859,1405.5,598.5859" style="stroke:#181818;stroke-width:1.0;"/><rect fill="#E2E2F0" height="30.2969" rx="2.5" ry="2.5" style="stroke:#181818;stroke-width:0.5;" width="113" x="1476.5" y="50"/><text fill="#000000" font-family="sans-serif" font-size="14" lengthAdjust="spacing" textLength="99" x="1483.5" y="69.9951">cert-manager</text><rect fill="#E2E2F0" height="30.2969" rx="2.5" ry="2.5" style="stroke:#181818;stroke-width:0.5;" width="113" x="1476.5" y="578.2891"/><text fill="#000000" font-family="sans-serif" font-size="14" lengthAdjust="spacing" textLength="99" x="1483.5" y="598.2842">cert-manager</text><polygon fill="#181818" points="111.5,108.4297,121.5,112.4297,111.5,116.4297,115.5,112.4297" style="stroke:#181818;stroke-width:1.0;"/><line style="stroke:#181818;stroke-width:1.0;" x1="37" x2="117.5" y1="112.4297" y2="112.4297"/><text fill="#000000" font-family="sans-serif" font-size="13" font-weight="bold" lengthAdjust="spacing" textLength="9" x="44" y="107.3638">1</text><text fill="#000000" font-family="sans-serif" font-size="13" lengthAdjust="spacing" textLength="41" x="57" y="107.3638">create</text><rect fill="#EEEEEE" height="3" style="stroke:#EEEEEE;stroke-width:1.0;" width="1594.5" x="0" y="140.9961"/><line style="stroke:#000000;stroke-width:1.0;" x1="0" x2="1594.5" y1="140.9961" y2="140.9961"/><line style="stroke:#000000;stroke-width:1.0;" x1="0" x2="1594.5" y1="143.9961" y2="143.9961"/><rect fill="#EEEEEE" height="23.1328" style="stroke:#000000;stroke-width:2.0;" width="54" x="770.25" y="130.4297"/><text fill="#000000" font-family="sans-serif" font-size="13" font-weight="bold" lengthAdjust="spacing" textLength="35" x="776.25" y="146.4966">CAPI</text><polygon fill="#181818" points="134.5,180.6953,124.5,184.6953,134.5,188.6953,130.5,184.6953" style="stroke:#181818;stroke-width:1.0;"/><line style="stroke:#181818;stroke-width:1.0;" x1="128.5" x2="274.5" y1="184.6953" y2="184.6953"/><text fill="#000000" font-family="sans-serif" font-size="13" font-weight="bold" lengthAdjust="spacing" textLength="9" x="140.5" y="179.6294">2</text><text fill="#000000" font-family="sans-serif" font-size="13" lengthAdjust="spacing" textLength="57" x="153.5" y="179.6294">reconcile</text><polygon fill="#181818" points="134.5,209.8281,124.5,213.8281,134.5,217.8281,130.5,213.8281" style="stroke:#181818;stroke-width:1.0;"/><line style="stroke:#181818;stroke-width:1.0;" x1="128.5" x2="531.5" y1="213.8281" y2="213.8281"/><text fill="#000000" font-family="sans-serif" font-size="13" font-weight="bold" lengthAdjust="spacing" textLength="8" x="140.5" y="208.7622">3</text><text fill="#000000" font-family="sans-serif" font-size="13" lengthAdjust="spacing" textLength="57" x="152.5" y="208.7622">reconcile</text><polygon fill="#008000" points="761.5,238.9609,771.5,242.9609,761.5,246.9609,765.5,242.9609" style="stroke:#008000;stroke-width:1.0;"/><line style="stroke:#008000;stroke-width:1.0;stroke-dasharray:2.0,2.0;" x1="532.5" x2="767.5" y1="242.9609" y2="242.9609"/><text fill="#000000" font-family="sans-serif" font-size="13" font-weight="bold" lengthAdjust="spacing" textLength="9" x="539.5" y="237.895">4</text><text fill="#000000" font-family="sans-serif" font-size="13" lengthAdjust="spacing" textLength="204" x="552.5" y="237.895">creates a cluster-specific secret</text><polygon fill="#008000" points="887,268.0938,897,272.0938,887,276.0938,891,272.0938" style="stroke:#008000;stroke-width:1.0;"/><line style="stroke:#008000;stroke-width:1.0;" x1="532.5" x2="893" y1="272.0938" y2="272.0938"/><text fill="#000000" font-family="sans-serif" font-size="13" font-weight="bold" lengthAdjust="spacing" textLength="9" x="539.5" y="267.0278">5</text><text fill="#000000" font-family="sans-serif" font-size="13" lengthAdjust="spacing" textLength="310" x="552.5" y="267.0278">creates a cluster-specific systemd proxy drop-in</text><polygon fill="#008000" points="887,297.2266,897,301.2266,887,305.2266,891,301.2266" style="stroke:#008000;stroke-width:1.0;"/><line style="stroke:#008000;stroke-width:1.0;" x1="275.5" x2="893" y1="301.2266" y2="301.2266"/><text fill="#000000" font-family="sans-serif" font-size="13" font-weight="bold" lengthAdjust="spacing" textLength="9" x="282.5" y="296.1606">6</text><text fill="#000000" font-family="sans-serif" font-size="13" lengthAdjust="spacing" textLength="217" x="295.5" y="296.1606">fetches the cluster-specific secret</text><line style="stroke:#181818;stroke-width:1.0;" x1="275.5" x2="317.5" y1="330.3594" y2="330.3594"/><line style="stroke:#181818;stroke-width:1.0;" x1="317.5" x2="317.5" y1="330.3594" y2="343.3594"/><line style="stroke:#181818;stroke-width:1.0;" x1="276.5" x2="317.5" y1="343.3594" y2="343.3594"/><polygon fill="#181818" points="286.5,339.3594,276.5,343.3594,286.5,347.3594,282.5,343.3594" style="stroke:#181818;stroke-width:1.0;"/><text fill="#000000" font-family="sans-serif" font-size="13" font-weight="bold" lengthAdjust="spacing" textLength="9" x="282.5" y="325.2935">7</text><text fill="#000000" font-family="sans-serif" font-size="13" lengthAdjust="spacing" textLength="230" x="295.5" y="325.2935">continue with machine bootstraping</text><rect fill="#EEEEEE" height="3" style="stroke:#EEEEEE;stroke-width:1.0;" width="1594.5" x="0" y="371.9258"/><line style="stroke:#000000;stroke-width:1.0;" x1="0" x2="1594.5" y1="371.9258" y2="371.9258"/><line style="stroke:#000000;stroke-width:1.0;" x1="0" x2="1594.5" y1="374.9258" y2="374.9258"/><rect fill="#EEEEEE" height="23.1328" style="stroke:#000000;stroke-width:2.0;" width="119" x="737.75" y="361.3594"/><text fill="#000000" font-family="sans-serif" font-size="13" font-weight="bold" lengthAdjust="spacing" textLength="100" x="743.75" y="377.4263">app platform</text><polygon fill="#181818" points="1073.5,411.625,1083.5,415.625,1073.5,419.625,1077.5,415.625" style="stroke:#181818;stroke-width:1.0;"/><line style="stroke:#181818;stroke-width:1.0;" x1="532.5" x2="1079.5" y1="415.625" y2="415.625"/><text fill="#000000" font-family="sans-serif" font-size="13" font-weight="bold" lengthAdjust="spacing" textLength="9" x="539.5" y="410.5591">8</text><text fill="#000000" font-family="sans-serif" font-size="13" lengthAdjust="spacing" textLength="116" x="552.5" y="410.5591">deploys in WC org</text><polygon fill="#181818" points="1397.5,440.7578,1407.5,444.7578,1397.5,448.7578,1401.5,444.7578" style="stroke:#181818;stroke-width:1.0;"/><line style="stroke:#181818;stroke-width:1.0;" x1="532.5" x2="1403.5" y1="444.7578" y2="444.7578"/><text fill="#000000" font-family="sans-serif" font-size="13" font-weight="bold" lengthAdjust="spacing" textLength="9" x="539.5" y="439.6919">9</text><text fill="#000000" font-family="sans-serif" font-size="13" lengthAdjust="spacing" textLength="224" x="552.5" y="439.6919">deploys in namespace/giantswarm</text><polygon fill="#181818" points="784.5,469.8906,774.5,473.8906,784.5,477.8906,780.5,473.8906" style="stroke:#181818;stroke-width:1.0;"/><line style="stroke:#181818;stroke-width:1.0;" x1="778.5" x2="1084.5" y1="473.8906" y2="473.8906"/><text fill="#000000" font-family="sans-serif" font-size="13" font-weight="bold" lengthAdjust="spacing" textLength="19" x="790.5" y="468.8247">10</text><text fill="#000000" font-family="sans-serif" font-size="13" lengthAdjust="spacing" textLength="265" x="813.5" y="468.8247">get cluster-specific secret and configmap</text><polygon fill="#181818" points="1291.5,499.0234,1301.5,503.0234,1291.5,507.0234,1295.5,503.0234" style="stroke:#181818;stroke-width:1.0;"/><line style="stroke:#181818;stroke-width:1.0;" x1="1085.5" x2="1297.5" y1="503.0234" y2="503.0234"/><text fill="#000000" font-family="sans-serif" font-size="13" font-weight="bold" lengthAdjust="spacing" textLength="18" x="1092.5" y="497.9575">11</text><text fill="#000000" font-family="sans-serif" font-size="13" lengthAdjust="spacing" textLength="172" x="1114.5" y="497.9575">create with merged values</text><polygon fill="#181818" points="1314.5,528.1563,1304.5,532.1563,1314.5,536.1563,1310.5,532.1563" style="stroke:#181818;stroke-width:1.0;"/><line style="stroke:#181818;stroke-width:1.0;" x1="1308.5" x2="1408.5" y1="532.1563" y2="532.1563"/><text fill="#000000" font-family="sans-serif" font-size="13" font-weight="bold" lengthAdjust="spacing" textLength="18" x="1320.5" y="527.0903">12</text><text fill="#000000" font-family="sans-serif" font-size="13" lengthAdjust="spacing" textLength="57" x="1342.5" y="527.0903">reconcile</text><polygon fill="#181818" points="1521,557.2891,1531,561.2891,1521,565.2891,1525,561.2891" style="stroke:#181818;stroke-width:1.0;"/><line style="stroke:#181818;stroke-width:1.0;" x1="1409.5" x2="1527" y1="561.2891" y2="561.2891"/><text fill="#000000" font-family="sans-serif" font-size="13" font-weight="bold" lengthAdjust="spacing" textLength="17" x="1416.5" y="556.2231">13</text><text fill="#000000" font-family="sans-serif" font-size="13" lengthAdjust="spacing" textLength="41" x="1437.5" y="556.2231">create</text><!--SRC=[bLInRjmm3Dtr5OHlo6JS7k0211wA3aM20veCHGUUpBE5sf8WoRdStvUMhTXAuXQPR95Fv2FVit48HW_zYPmGA8DnKFpqvFRVL2W0FOm74E9aNg7eKMD3FUa0iXjy85V0pZZK3GcBBYYfB7AogAOiLCTOOmPNHzWzHFIHwlp2lRK9ZDRcG6bqSARZglUFtoDaV87TgHjeISuzIhxkIsF98S-oxiuj_CCSpvlF07X1hkZNTvvY94VxAsVw6gmphzS8dYEFOs0Xz5o1joJLMKaOnyiuCSitBlkRPSAME-L8EOOIDctxPYz8ry2YpCfSZFlJ6QnNkZIEIB-J9PPFeeo7hKt_XyTpzMw3v48vkMD6S-37T5wOHYkLTuiTRa4wma1270wJg8U34F4bXpbYQb9rhFT7CR-6BNzDc_bzbukSkB0sAL6-wUU9a-7pWakzjG_-NMvj8QYTiQNIyznRvSuKPClbGakR_DBcnYSJO3ML7WWkAhJGesoL9bR211ySMgMRk7Us8jWEmzcuFkv_OyKhozv2JROpLmzA0_lSk6PJcDmssKsDFNcBalQDOXlv2xgUVq9BdvMoIQI6mjRuW6mq7lgicXxjXpgJtPCkyrB8DLJF7pvFdfFDhgrizGbgiNjgy1S0]--></g></svg>