<?xml version="1.0" encoding="utf-8"?>
<!-- Generator: Adobe Illustrator 22.0.1, SVG Export Plug-In . SVG Version: 6.00 Build 0)  -->
<svg version="1.1" id="Layer_1" xmlns="http://www.w3.org/2000/svg" xmlns:xlink="http://www.w3.org/1999/xlink" x="0px" y="0px"
	 viewBox="0 0 85 85" style="enable-background:new 0 0 85 85;" xml:space="preserve">
<style type="text/css">
	.st0{fill:url(#SVGID_1_);}
	.st1{fill:#FFFFFF;}
	.st2{fill:#E54D42;}
</style>
<g>

		<linearGradient id="SVGID_1_" gradientUnits="userSpaceOnUse" x1="776.192" y1="2125.9282" x2="776.192" y2="1953.8402" gradientTransform="matrix(0.3571 0 0 0.3571 -234.6585 -685.923)">
		<stop  offset="0" style="stop-color:#E14760"/>
		<stop  offset="1" style="stop-color:#FA8816"/>
	</linearGradient>
	<path class="st0" d="M76.7,33.3L60.5,12.6c-0.9-1.1-2.7-1.1-3.5,0.1l-6.9,9.8c-2.2-1.2-4.7-1.9-7.4-1.9c-2.9,0-5.6,0.7-7.9,2
		L28.2,13c-0.8-1.2-2.6-1.3-3.5-0.1L8.4,33.6c-0.7,0.8,0.4,1.9,1.3,1.2l14-12.4c0.4-0.4,1.1-0.3,1.4,0.1l1.7,5.4
		c-8,1.9-13.9,9.1-13.8,17.7c0,9.6,7.4,17.4,16.9,18.1c0.3,3.5,2.3,7.3,8.6,9.5c0.5,0.2,0.9-0.4,0.6-0.8c-0.6-0.8-1.3-2-1.5-3.3
		c1.5,0.5,3.1,0.8,4.8,0.8c1.5,0,3-0.3,4.3-0.7c-0.3,1.2-0.9,2.3-1.5,3.1c-0.3,0.4,0.1,1,0.6,0.8c6.4-2.3,8.6-6.1,9-9.5
		c9.8-0.3,17.7-8.4,17.6-18.2c0-8.6-6.1-15.9-14.2-17.7l1.8-5.6c0.4-0.4,1-0.5,1.4-0.1l14,12.4C76.3,35.2,77.4,34.1,76.7,33.3z"/>
	<ellipse transform="matrix(0.8521 -0.5233 0.5233 0.8521 -20.8328 21.5246)" class="st1" cx="27.7" cy="47.6" rx="9.6" ry="13"/>
	<g>
		<path class="st2" d="M23.9,53.4c0,0-0.2-0.6-0.2-1.6c0-1.1,0.2-1.6,0.2-1.6l4.9-2.1L23.9,46c0,0-0.2-0.6-0.2-1.6
			c0-1.1,0.2-1.6,0.2-1.6l8.4,3.6c0,0,0.2,0.6,0.2,1.7c0,1-0.2,1.7-0.2,1.7L23.9,53.4z"/>
	</g>
	<ellipse transform="matrix(0.5233 -0.8521 0.8521 0.5233 -13.039 71.8865)" class="st1" cx="57.7" cy="47.6" rx="13.1" ry="9.7"/>
	<g>
		<path class="st2" d="M51.8,49.7c0,0-0.2-0.4-0.2-1.5s0.2-1.5,0.2-1.5H63c0,0,0.2,0.4,0.2,1.5S63,49.7,63,49.7H51.8z"/>
	</g>
</g>
</svg>
